<mxfile host="app.diagrams.net" modified="2023-10-23T14:17:37.627Z" agent="Mozilla/5.0 (Windows NT 10.0; Win64; x64) AppleWebKit/537.36 (KHTML, like Gecko) Chrome/118.0.0.0 Safari/537.36" etag="p0hcsw-zCI67U8xeWsGB" version="22.0.6" type="github">
  <diagram name="Página-1" id="a-3sOa7rGDe4Qqq5oHFt">
    <mxGraphModel dx="1434" dy="758" grid="1" gridSize="10" guides="1" tooltips="1" connect="1" arrows="1" fold="1" page="1" pageScale="1" pageWidth="3950" pageHeight="2000" math="0" shadow="0">
      <root>
        <mxCell id="0" />
        <mxCell id="1" parent="0" />
        <mxCell id="VQr28eF_XUWJxTgzowIh-1" value="Trazabilidad de la cuenta medica" style="swimlane;childLayout=stackLayout;resizeParent=1;resizeParentMax=0;horizontal=1;startSize=20;horizontalStack=0;html=1;" vertex="1" parent="1">
          <mxGeometry x="10" y="10" width="3910" height="1350" as="geometry" />
        </mxCell>
        <mxCell id="VQr28eF_XUWJxTgzowIh-2" value="Prestador" style="swimlane;startSize=20;horizontal=0;html=1;" vertex="1" parent="VQr28eF_XUWJxTgzowIh-1">
          <mxGeometry y="20" width="3910" height="240" as="geometry" />
        </mxCell>
        <mxCell id="VQr28eF_XUWJxTgzowIh-3" style="edgeStyle=orthogonalEdgeStyle;rounded=0;orthogonalLoop=1;jettySize=auto;html=1;entryX=0.5;entryY=0;entryDx=0;entryDy=0;entryPerimeter=0;" edge="1" parent="VQr28eF_XUWJxTgzowIh-2" source="VQr28eF_XUWJxTgzowIh-4" target="VQr28eF_XUWJxTgzowIh-9">
          <mxGeometry relative="1" as="geometry" />
        </mxCell>
        <mxCell id="VQr28eF_XUWJxTgzowIh-4" value="Rips, soportes y &lt;br&gt;facturas" style="shape=mxgraph.bpmn.data;labelPosition=center;verticalLabelPosition=top;align=center;verticalAlign=bottom;size=15;html=1;bpmnTransferType=input;fillColor=#d5e8d4;strokeColor=#82b366;" vertex="1" parent="VQr28eF_XUWJxTgzowIh-2">
          <mxGeometry x="170" y="40" width="40" height="60" as="geometry" />
        </mxCell>
        <mxCell id="VQr28eF_XUWJxTgzowIh-5" style="edgeStyle=orthogonalEdgeStyle;rounded=0;orthogonalLoop=1;jettySize=auto;html=1;" edge="1" parent="VQr28eF_XUWJxTgzowIh-2" source="VQr28eF_XUWJxTgzowIh-6" target="VQr28eF_XUWJxTgzowIh-11">
          <mxGeometry relative="1" as="geometry" />
        </mxCell>
        <mxCell id="VQr28eF_XUWJxTgzowIh-6" value="Recepcionar informe de errores" style="points=[[0.25,0,0],[0.5,0,0],[0.75,0,0],[1,0.25,0],[1,0.5,0],[1,0.75,0],[0.75,1,0],[0.5,1,0],[0.25,1,0],[0,0.75,0],[0,0.5,0],[0,0.25,0]];shape=mxgraph.bpmn.task;whiteSpace=wrap;rectStyle=rounded;size=10;html=1;container=1;expand=0;collapsible=0;taskMarker=receive;fillColor=#fff2cc;strokeColor=#d6b656;" vertex="1" parent="VQr28eF_XUWJxTgzowIh-2">
          <mxGeometry x="440" y="125" width="120" height="80" as="geometry" />
        </mxCell>
        <mxCell id="VQr28eF_XUWJxTgzowIh-7" value="Inicio" style="points=[[0.145,0.145,0],[0.5,0,0],[0.855,0.145,0],[1,0.5,0],[0.855,0.855,0],[0.5,1,0],[0.145,0.855,0],[0,0.5,0]];shape=mxgraph.bpmn.event;html=1;verticalLabelPosition=bottom;labelBackgroundColor=#ffffff;verticalAlign=top;align=center;perimeter=ellipsePerimeter;outlineConnect=0;aspect=fixed;outline=standard;symbol=general;fillColor=#f8cecc;strokeColor=#b85450;" vertex="1" parent="VQr28eF_XUWJxTgzowIh-2">
          <mxGeometry x="40" y="140" width="50" height="50" as="geometry" />
        </mxCell>
        <mxCell id="VQr28eF_XUWJxTgzowIh-8" style="edgeStyle=orthogonalEdgeStyle;rounded=0;orthogonalLoop=1;jettySize=auto;html=1;entryX=0;entryY=0.5;entryDx=0;entryDy=0;entryPerimeter=0;" edge="1" parent="VQr28eF_XUWJxTgzowIh-2" source="VQr28eF_XUWJxTgzowIh-7" target="VQr28eF_XUWJxTgzowIh-9">
          <mxGeometry relative="1" as="geometry">
            <mxPoint x="130" y="-400" as="targetPoint" />
          </mxGeometry>
        </mxCell>
        <mxCell id="VQr28eF_XUWJxTgzowIh-9" value="Enviar RIPS" style="points=[[0.25,0,0],[0.5,0,0],[0.75,0,0],[1,0.25,0],[1,0.5,0],[1,0.75,0],[0.75,1,0],[0.5,1,0],[0.25,1,0],[0,0.75,0],[0,0.5,0],[0,0.25,0]];shape=mxgraph.bpmn.task;whiteSpace=wrap;rectStyle=rounded;size=10;html=1;container=1;expand=0;collapsible=0;taskMarker=send;fillColor=#fff2cc;strokeColor=#d6b656;" vertex="1" parent="VQr28eF_XUWJxTgzowIh-2">
          <mxGeometry x="130" y="125" width="120" height="80" as="geometry" />
        </mxCell>
        <mxCell id="VQr28eF_XUWJxTgzowIh-10" style="edgeStyle=orthogonalEdgeStyle;rounded=0;orthogonalLoop=1;jettySize=auto;html=1;" edge="1" parent="VQr28eF_XUWJxTgzowIh-2" source="VQr28eF_XUWJxTgzowIh-11" target="VQr28eF_XUWJxTgzowIh-9">
          <mxGeometry relative="1" as="geometry" />
        </mxCell>
        <mxCell id="VQr28eF_XUWJxTgzowIh-11" value="Corregir RIPS" style="points=[[0.25,0,0],[0.5,0,0],[0.75,0,0],[1,0.25,0],[1,0.5,0],[1,0.75,0],[0.75,1,0],[0.5,1,0],[0.25,1,0],[0,0.75,0],[0,0.5,0],[0,0.25,0]];shape=mxgraph.bpmn.task;whiteSpace=wrap;rectStyle=rounded;size=10;html=1;container=1;expand=0;collapsible=0;taskMarker=abstract;fillColor=#fff2cc;strokeColor=#d6b656;" vertex="1" parent="VQr28eF_XUWJxTgzowIh-2">
          <mxGeometry x="280" y="125" width="120" height="80" as="geometry" />
        </mxCell>
        <mxCell id="VQr28eF_XUWJxTgzowIh-12" style="edgeStyle=orthogonalEdgeStyle;rounded=0;orthogonalLoop=1;jettySize=auto;html=1;" edge="1" parent="VQr28eF_XUWJxTgzowIh-2" source="VQr28eF_XUWJxTgzowIh-13" target="VQr28eF_XUWJxTgzowIh-14">
          <mxGeometry relative="1" as="geometry">
            <mxPoint x="1780" y="120" as="targetPoint" />
          </mxGeometry>
        </mxCell>
        <mxCell id="VQr28eF_XUWJxTgzowIh-13" value="Recibir notificación de factura y glosa" style="points=[[0.25,0,0],[0.5,0,0],[0.75,0,0],[1,0.25,0],[1,0.5,0],[1,0.75,0],[0.75,1,0],[0.5,1,0],[0.25,1,0],[0,0.75,0],[0,0.5,0],[0,0.25,0]];shape=mxgraph.bpmn.task;whiteSpace=wrap;rectStyle=rounded;size=10;html=1;container=1;expand=0;collapsible=0;taskMarker=receive;fillColor=#fff2cc;strokeColor=#d6b656;" vertex="1" parent="VQr28eF_XUWJxTgzowIh-2">
          <mxGeometry x="1590" y="80" width="120" height="80" as="geometry" />
        </mxCell>
        <mxCell id="VQr28eF_XUWJxTgzowIh-14" value="Notificar repuesta de la glosa a la EPs" style="points=[[0.25,0,0],[0.5,0,0],[0.75,0,0],[1,0.25,0],[1,0.5,0],[1,0.75,0],[0.75,1,0],[0.5,1,0],[0.25,1,0],[0,0.75,0],[0,0.5,0],[0,0.25,0]];shape=mxgraph.bpmn.task;whiteSpace=wrap;rectStyle=rounded;size=10;html=1;container=1;expand=0;collapsible=0;taskMarker=send;fillColor=#fff2cc;strokeColor=#d6b656;" vertex="1" parent="VQr28eF_XUWJxTgzowIh-2">
          <mxGeometry x="1750" y="80" width="120" height="80" as="geometry" />
        </mxCell>
        <mxCell id="VQr28eF_XUWJxTgzowIh-15" style="edgeStyle=orthogonalEdgeStyle;rounded=0;orthogonalLoop=1;jettySize=auto;html=1;entryX=0;entryY=0.5;entryDx=0;entryDy=0;entryPerimeter=0;exitX=0.5;exitY=1;exitDx=0;exitDy=0;exitPerimeter=0;" edge="1" parent="VQr28eF_XUWJxTgzowIh-1" source="VQr28eF_XUWJxTgzowIh-9" target="VQr28eF_XUWJxTgzowIh-22">
          <mxGeometry relative="1" as="geometry">
            <Array as="points">
              <mxPoint x="190" y="360" />
            </Array>
          </mxGeometry>
        </mxCell>
        <mxCell id="VQr28eF_XUWJxTgzowIh-16" value="Revisor de facturas" style="swimlane;startSize=20;horizontal=0;html=1;" vertex="1" parent="VQr28eF_XUWJxTgzowIh-1">
          <mxGeometry y="260" width="3910" height="610" as="geometry" />
        </mxCell>
        <mxCell id="VQr28eF_XUWJxTgzowIh-17" value="" style="edgeStyle=orthogonalEdgeStyle;rounded=0;orthogonalLoop=1;jettySize=auto;html=1;" edge="1" parent="VQr28eF_XUWJxTgzowIh-16" source="VQr28eF_XUWJxTgzowIh-22" target="VQr28eF_XUWJxTgzowIh-19">
          <mxGeometry relative="1" as="geometry">
            <mxPoint x="420" y="100" as="sourcePoint" />
          </mxGeometry>
        </mxCell>
        <mxCell id="VQr28eF_XUWJxTgzowIh-18" value="" style="edgeStyle=orthogonalEdgeStyle;rounded=0;orthogonalLoop=1;jettySize=auto;html=1;" edge="1" parent="VQr28eF_XUWJxTgzowIh-16" source="VQr28eF_XUWJxTgzowIh-19" target="VQr28eF_XUWJxTgzowIh-21">
          <mxGeometry relative="1" as="geometry" />
        </mxCell>
        <mxCell id="VQr28eF_XUWJxTgzowIh-19" value="Verificar la información inicial de los archivos RIPS" style="points=[[0.25,0,0],[0.5,0,0],[0.75,0,0],[1,0.25,0],[1,0.5,0],[1,0.75,0],[0.75,1,0],[0.5,1,0],[0.25,1,0],[0,0.75,0],[0,0.5,0],[0,0.25,0]];shape=mxgraph.bpmn.task;whiteSpace=wrap;rectStyle=rounded;size=10;html=1;container=1;expand=0;collapsible=0;taskMarker=abstract;fillColor=#fff2cc;strokeColor=#d6b656;" vertex="1" parent="VQr28eF_XUWJxTgzowIh-16">
          <mxGeometry x="440" y="60" width="120" height="80" as="geometry" />
        </mxCell>
        <mxCell id="VQr28eF_XUWJxTgzowIh-20" style="edgeStyle=orthogonalEdgeStyle;rounded=0;orthogonalLoop=1;jettySize=auto;html=1;" edge="1" parent="VQr28eF_XUWJxTgzowIh-16" source="VQr28eF_XUWJxTgzowIh-21" target="VQr28eF_XUWJxTgzowIh-23">
          <mxGeometry relative="1" as="geometry" />
        </mxCell>
        <mxCell id="VQr28eF_XUWJxTgzowIh-21" value="Cargar archivos RIPS en OASIS modulo erip" style="points=[[0.25,0,0],[0.5,0,0],[0.75,0,0],[1,0.25,0],[1,0.5,0],[1,0.75,0],[0.75,1,0],[0.5,1,0],[0.25,1,0],[0,0.75,0],[0,0.5,0],[0,0.25,0]];shape=mxgraph.bpmn.task;whiteSpace=wrap;rectStyle=rounded;size=10;html=1;container=1;expand=0;collapsible=0;taskMarker=abstract;fillColor=#fff2cc;strokeColor=#d6b656;" vertex="1" parent="VQr28eF_XUWJxTgzowIh-16">
          <mxGeometry x="600" y="60" width="120" height="80" as="geometry" />
        </mxCell>
        <mxCell id="VQr28eF_XUWJxTgzowIh-22" value="Recepcionar archivos RIPS, soportes y facturas" style="points=[[0.25,0,0],[0.5,0,0],[0.75,0,0],[1,0.25,0],[1,0.5,0],[1,0.75,0],[0.75,1,0],[0.5,1,0],[0.25,1,0],[0,0.75,0],[0,0.5,0],[0,0.25,0]];shape=mxgraph.bpmn.task;whiteSpace=wrap;rectStyle=rounded;size=10;html=1;container=1;expand=0;collapsible=0;taskMarker=manual;fillColor=#fff2cc;strokeColor=#d6b656;" vertex="1" parent="VQr28eF_XUWJxTgzowIh-16">
          <mxGeometry x="280" y="60" width="120" height="80" as="geometry" />
        </mxCell>
        <mxCell id="VQr28eF_XUWJxTgzowIh-23" value="Validar estructura y reglas de negocio de RIPS" style="points=[[0.25,0,0],[0.5,0,0],[0.75,0,0],[1,0.25,0],[1,0.5,0],[1,0.75,0],[0.75,1,0],[0.5,1,0],[0.25,1,0],[0,0.75,0],[0,0.5,0],[0,0.25,0]];shape=mxgraph.bpmn.task;whiteSpace=wrap;rectStyle=rounded;size=10;html=1;container=1;expand=0;collapsible=0;taskMarker=service;fillColor=#fff2cc;strokeColor=#d6b656;" vertex="1" parent="VQr28eF_XUWJxTgzowIh-16">
          <mxGeometry x="760" y="60" width="120" height="80" as="geometry" />
        </mxCell>
        <mxCell id="VQr28eF_XUWJxTgzowIh-24" value="No" style="edgeStyle=orthogonalEdgeStyle;rounded=0;orthogonalLoop=1;jettySize=auto;html=1;" edge="1" parent="VQr28eF_XUWJxTgzowIh-16" source="VQr28eF_XUWJxTgzowIh-26" target="VQr28eF_XUWJxTgzowIh-30">
          <mxGeometry x="-0.0667" relative="1" as="geometry">
            <mxPoint as="offset" />
          </mxGeometry>
        </mxCell>
        <mxCell id="VQr28eF_XUWJxTgzowIh-25" value="Si" style="edgeStyle=orthogonalEdgeStyle;rounded=0;orthogonalLoop=1;jettySize=auto;html=1;entryX=0;entryY=0.5;entryDx=0;entryDy=0;entryPerimeter=0;" edge="1" parent="VQr28eF_XUWJxTgzowIh-16" source="VQr28eF_XUWJxTgzowIh-26" target="VQr28eF_XUWJxTgzowIh-36">
          <mxGeometry relative="1" as="geometry">
            <mxPoint x="1020" y="335" as="targetPoint" />
            <Array as="points">
              <mxPoint x="945" y="330" />
            </Array>
          </mxGeometry>
        </mxCell>
        <mxCell id="VQr28eF_XUWJxTgzowIh-26" value="¿Cumple con las&lt;br&gt;validaciones?" style="points=[[0.25,0.25,0],[0.5,0,0],[0.75,0.25,0],[1,0.5,0],[0.75,0.75,0],[0.5,1,0],[0.25,0.75,0],[0,0.5,0]];shape=mxgraph.bpmn.gateway2;html=1;verticalLabelPosition=top;labelBackgroundColor=#ffffff;verticalAlign=bottom;align=center;perimeter=rhombusPerimeter;outlineConnect=0;outline=none;symbol=none;fillColor=#d5e8d4;strokeColor=#82b366;horizontal=1;labelPosition=center;" vertex="1" parent="VQr28eF_XUWJxTgzowIh-16">
          <mxGeometry x="920" y="75" width="50" height="50" as="geometry" />
        </mxCell>
        <mxCell id="VQr28eF_XUWJxTgzowIh-27" style="edgeStyle=orthogonalEdgeStyle;rounded=0;orthogonalLoop=1;jettySize=auto;html=1;entryX=0;entryY=0.5;entryDx=0;entryDy=0;entryPerimeter=0;" edge="1" parent="VQr28eF_XUWJxTgzowIh-16" source="VQr28eF_XUWJxTgzowIh-23" target="VQr28eF_XUWJxTgzowIh-26">
          <mxGeometry relative="1" as="geometry" />
        </mxCell>
        <mxCell id="VQr28eF_XUWJxTgzowIh-28" style="edgeStyle=orthogonalEdgeStyle;rounded=0;orthogonalLoop=1;jettySize=auto;html=1;" edge="1" parent="VQr28eF_XUWJxTgzowIh-16" source="VQr28eF_XUWJxTgzowIh-30" target="VQr28eF_XUWJxTgzowIh-31">
          <mxGeometry relative="1" as="geometry" />
        </mxCell>
        <mxCell id="VQr28eF_XUWJxTgzowIh-29" style="edgeStyle=orthogonalEdgeStyle;rounded=0;orthogonalLoop=1;jettySize=auto;html=1;" edge="1" parent="VQr28eF_XUWJxTgzowIh-16" source="VQr28eF_XUWJxTgzowIh-30" target="VQr28eF_XUWJxTgzowIh-32">
          <mxGeometry relative="1" as="geometry" />
        </mxCell>
        <mxCell id="VQr28eF_XUWJxTgzowIh-30" value="Generar informe de errores" style="points=[[0.25,0,0],[0.5,0,0],[0.75,0,0],[1,0.25,0],[1,0.5,0],[1,0.75,0],[0.75,1,0],[0.5,1,0],[0.25,1,0],[0,0.75,0],[0,0.5,0],[0,0.25,0]];shape=mxgraph.bpmn.task;whiteSpace=wrap;rectStyle=rounded;size=10;html=1;container=1;expand=0;collapsible=0;taskMarker=service;fillColor=#fff2cc;strokeColor=#d6b656;" vertex="1" parent="VQr28eF_XUWJxTgzowIh-16">
          <mxGeometry x="1020" y="60" width="120" height="80" as="geometry" />
        </mxCell>
        <mxCell id="VQr28eF_XUWJxTgzowIh-31" value="Informe de errores" style="shape=mxgraph.bpmn.data;labelPosition=center;verticalLabelPosition=bottom;align=center;verticalAlign=top;size=15;html=1;bpmnTransferType=output;fillColor=#d5e8d4;strokeColor=#82b366;" vertex="1" parent="VQr28eF_XUWJxTgzowIh-16">
          <mxGeometry x="1060" y="170" width="40" height="60" as="geometry" />
        </mxCell>
        <mxCell id="VQr28eF_XUWJxTgzowIh-32" value="Notificar errores de validación al prestador" style="points=[[0.25,0,0],[0.5,0,0],[0.75,0,0],[1,0.25,0],[1,0.5,0],[1,0.75,0],[0.75,1,0],[0.5,1,0],[0.25,1,0],[0,0.75,0],[0,0.5,0],[0,0.25,0]];shape=mxgraph.bpmn.task;whiteSpace=wrap;rectStyle=rounded;size=10;html=1;container=1;expand=0;collapsible=0;taskMarker=send;fillColor=#fff2cc;strokeColor=#d6b656;" vertex="1" parent="VQr28eF_XUWJxTgzowIh-16">
          <mxGeometry x="1180" y="60" width="120" height="80" as="geometry" />
        </mxCell>
        <mxCell id="VQr28eF_XUWJxTgzowIh-36" value="Crear la factura salud en efac FS" style="points=[[0.25,0,0],[0.5,0,0],[0.75,0,0],[1,0.25,0],[1,0.5,0],[1,0.75,0],[0.75,1,0],[0.5,1,0],[0.25,1,0],[0,0.75,0],[0,0.5,0],[0,0.25,0]];shape=mxgraph.bpmn.task;whiteSpace=wrap;rectStyle=rounded;size=10;html=1;container=1;expand=0;collapsible=0;taskMarker=service;fillColor=#fff2cc;strokeColor=#d6b656;" vertex="1" parent="VQr28eF_XUWJxTgzowIh-16">
          <mxGeometry x="1020" y="290" width="120" height="80" as="geometry" />
        </mxCell>
        <mxCell id="VQr28eF_XUWJxTgzowIh-43" style="edgeStyle=orthogonalEdgeStyle;rounded=0;orthogonalLoop=1;jettySize=auto;html=1;entryX=1;entryY=0.5;entryDx=0;entryDy=0;entryPerimeter=0;" edge="1" parent="VQr28eF_XUWJxTgzowIh-16" target="VQr28eF_XUWJxTgzowIh-6">
          <mxGeometry relative="1" as="geometry">
            <mxPoint x="1237.5" y="60" as="sourcePoint" />
            <mxPoint x="840" y="-90" as="targetPoint" />
            <Array as="points">
              <mxPoint x="1238" y="-75" />
            </Array>
          </mxGeometry>
        </mxCell>
        <mxCell id="VQr28eF_XUWJxTgzowIh-44" value="Enviar facturas al area de auditoria" style="points=[[0.25,0,0],[0.5,0,0],[0.75,0,0],[1,0.25,0],[1,0.5,0],[1,0.75,0],[0.75,1,0],[0.5,1,0],[0.25,1,0],[0,0.75,0],[0,0.5,0],[0,0.25,0]];shape=mxgraph.bpmn.task;whiteSpace=wrap;rectStyle=rounded;size=10;html=1;container=1;expand=0;collapsible=0;taskMarker=send;fillColor=#fff2cc;strokeColor=#d6b656;" vertex="1" parent="VQr28eF_XUWJxTgzowIh-16">
          <mxGeometry x="1340" y="355" width="120" height="80" as="geometry" />
        </mxCell>
        <mxCell id="VQr28eF_XUWJxTgzowIh-45" style="edgeStyle=orthogonalEdgeStyle;rounded=0;orthogonalLoop=1;jettySize=auto;html=1;" edge="1" parent="VQr28eF_XUWJxTgzowIh-16" source="VQr28eF_XUWJxTgzowIh-46" target="VQr28eF_XUWJxTgzowIh-44">
          <mxGeometry relative="1" as="geometry" />
        </mxCell>
        <mxCell id="VQr28eF_XUWJxTgzowIh-46" value="Facturas recibidas&lt;br&gt;en 48 horas" style="points=[[0.145,0.145,0],[0.5,0,0],[0.855,0.145,0],[1,0.5,0],[0.855,0.855,0],[0.5,1,0],[0.145,0.855,0],[0,0.5,0]];shape=mxgraph.bpmn.event;html=1;verticalLabelPosition=bottom;labelBackgroundColor=#ffffff;verticalAlign=top;align=center;perimeter=ellipsePerimeter;outlineConnect=0;aspect=fixed;outline=standard;symbol=timer;fillColor=#d5e8d4;strokeColor=#82b366;" vertex="1" parent="VQr28eF_XUWJxTgzowIh-16">
          <mxGeometry x="1375" y="465" width="50" height="50" as="geometry" />
        </mxCell>
        <mxCell id="VQr28eF_XUWJxTgzowIh-48" style="edgeStyle=orthogonalEdgeStyle;rounded=0;orthogonalLoop=1;jettySize=auto;html=1;" edge="1" parent="VQr28eF_XUWJxTgzowIh-16" source="VQr28eF_XUWJxTgzowIh-49" target="VQr28eF_XUWJxTgzowIh-61">
          <mxGeometry relative="1" as="geometry" />
        </mxCell>
        <mxCell id="VQr28eF_XUWJxTgzowIh-49" value="Recibir resultado de la auditoria" style="points=[[0.25,0,0],[0.5,0,0],[0.75,0,0],[1,0.25,0],[1,0.5,0],[1,0.75,0],[0.75,1,0],[0.5,1,0],[0.25,1,0],[0,0.75,0],[0,0.5,0],[0,0.25,0]];shape=mxgraph.bpmn.task;whiteSpace=wrap;rectStyle=rounded;size=10;html=1;container=1;expand=0;collapsible=0;taskMarker=receive;fillColor=#fff2cc;strokeColor=#d6b656;" vertex="1" parent="VQr28eF_XUWJxTgzowIh-16">
          <mxGeometry x="2020" y="410" width="120" height="80" as="geometry" />
        </mxCell>
        <mxCell id="VQr28eF_XUWJxTgzowIh-50" style="edgeStyle=orthogonalEdgeStyle;rounded=0;orthogonalLoop=1;jettySize=auto;html=1;" edge="1" parent="VQr28eF_XUWJxTgzowIh-16" source="VQr28eF_XUWJxTgzowIh-51" target="VQr28eF_XUWJxTgzowIh-53">
          <mxGeometry relative="1" as="geometry" />
        </mxCell>
        <mxCell id="VQr28eF_XUWJxTgzowIh-51" value="Visualizar glosas FD hospitalarias en efac" style="points=[[0.25,0,0],[0.5,0,0],[0.75,0,0],[1,0.25,0],[1,0.5,0],[1,0.75,0],[0.75,1,0],[0.5,1,0],[0.25,1,0],[0,0.75,0],[0,0.5,0],[0,0.25,0]];shape=mxgraph.bpmn.task;whiteSpace=wrap;rectStyle=rounded;size=10;html=1;container=1;expand=0;collapsible=0;taskMarker=abstract;fillColor=#fff2cc;strokeColor=#d6b656;" vertex="1" parent="VQr28eF_XUWJxTgzowIh-16">
          <mxGeometry x="2440" y="410" width="120" height="80" as="geometry" />
        </mxCell>
        <mxCell id="VQr28eF_XUWJxTgzowIh-52" style="edgeStyle=orthogonalEdgeStyle;rounded=0;orthogonalLoop=1;jettySize=auto;html=1;" edge="1" parent="VQr28eF_XUWJxTgzowIh-16" source="VQr28eF_XUWJxTgzowIh-53" target="VQr28eF_XUWJxTgzowIh-66">
          <mxGeometry relative="1" as="geometry" />
        </mxCell>
        <mxCell id="VQr28eF_XUWJxTgzowIh-53" value="Contabilizar facturas en salud FS y FD" style="points=[[0.25,0,0],[0.5,0,0],[0.75,0,0],[1,0.25,0],[1,0.5,0],[1,0.75,0],[0.75,1,0],[0.5,1,0],[0.25,1,0],[0,0.75,0],[0,0.5,0],[0,0.25,0]];shape=mxgraph.bpmn.task;whiteSpace=wrap;rectStyle=rounded;size=10;html=1;container=1;expand=0;collapsible=0;taskMarker=abstract;fillColor=#fff2cc;strokeColor=#d6b656;" vertex="1" parent="VQr28eF_XUWJxTgzowIh-16">
          <mxGeometry x="2590" y="410" width="120" height="80" as="geometry" />
        </mxCell>
        <mxCell id="VQr28eF_XUWJxTgzowIh-54" style="edgeStyle=orthogonalEdgeStyle;rounded=0;orthogonalLoop=1;jettySize=auto;html=1;exitX=1;exitY=0.5;exitDx=0;exitDy=0;exitPerimeter=0;" edge="1" parent="VQr28eF_XUWJxTgzowIh-16" source="VQr28eF_XUWJxTgzowIh-55" target="VQr28eF_XUWJxTgzowIh-56">
          <mxGeometry relative="1" as="geometry">
            <mxPoint x="2980" y="160" as="sourcePoint" />
          </mxGeometry>
        </mxCell>
        <mxCell id="VQr28eF_XUWJxTgzowIh-55" value="Descargar las glosas generadas" style="points=[[0.25,0,0],[0.5,0,0],[0.75,0,0],[1,0.25,0],[1,0.5,0],[1,0.75,0],[0.75,1,0],[0.5,1,0],[0.25,1,0],[0,0.75,0],[0,0.5,0],[0,0.25,0]];shape=mxgraph.bpmn.task;whiteSpace=wrap;rectStyle=rounded;size=10;html=1;container=1;expand=0;collapsible=0;taskMarker=abstract;fillColor=#fff2cc;strokeColor=#d6b656;" vertex="1" parent="VQr28eF_XUWJxTgzowIh-16">
          <mxGeometry x="2850" y="410" width="120" height="80" as="geometry" />
        </mxCell>
        <mxCell id="VQr28eF_XUWJxTgzowIh-56" value="Notificar glosas generadas al prestador" style="points=[[0.25,0,0],[0.5,0,0],[0.75,0,0],[1,0.25,0],[1,0.5,0],[1,0.75,0],[0.75,1,0],[0.5,1,0],[0.25,1,0],[0,0.75,0],[0,0.5,0],[0,0.25,0]];shape=mxgraph.bpmn.task;whiteSpace=wrap;rectStyle=rounded;size=10;html=1;container=1;expand=0;collapsible=0;taskMarker=send;fillColor=#fff2cc;strokeColor=#d6b656;" vertex="1" parent="VQr28eF_XUWJxTgzowIh-16">
          <mxGeometry x="3000" y="410" width="120" height="80" as="geometry" />
        </mxCell>
        <mxCell id="VQr28eF_XUWJxTgzowIh-111" style="edgeStyle=orthogonalEdgeStyle;rounded=0;orthogonalLoop=1;jettySize=auto;html=1;" edge="1" parent="VQr28eF_XUWJxTgzowIh-16" source="VQr28eF_XUWJxTgzowIh-57" target="VQr28eF_XUWJxTgzowIh-67">
          <mxGeometry relative="1" as="geometry" />
        </mxCell>
        <mxCell id="VQr28eF_XUWJxTgzowIh-57" value="&lt;font style=&quot;vertical-align: inherit;&quot;&gt;&lt;font style=&quot;vertical-align: inherit;&quot;&gt;Recibido de facturas&lt;/font&gt;&lt;/font&gt;" style="points=[[0.25,0.25,0],[0.5,0,0],[0.75,0.25,0],[1,0.5,0],[0.75,0.75,0],[0.5,1,0],[0.25,0.75,0],[0,0.5,0]];shape=mxgraph.bpmn.gateway2;html=1;verticalLabelPosition=bottom;labelBackgroundColor=#ffffff;verticalAlign=top;align=center;perimeter=rhombusPerimeter;outlineConnect=0;outline=standard;symbol=message;fillColor=#d5e8d4;strokeColor=#82b366;" vertex="1" parent="VQr28eF_XUWJxTgzowIh-16">
          <mxGeometry x="1370" y="240" width="50" height="50" as="geometry" />
        </mxCell>
        <mxCell id="VQr28eF_XUWJxTgzowIh-60" value="Si" style="edgeStyle=orthogonalEdgeStyle;rounded=0;orthogonalLoop=1;jettySize=auto;html=1;entryX=0;entryY=0.5;entryDx=0;entryDy=0;entryPerimeter=0;" edge="1" parent="VQr28eF_XUWJxTgzowIh-16" source="VQr28eF_XUWJxTgzowIh-61" target="VQr28eF_XUWJxTgzowIh-63">
          <mxGeometry relative="1" as="geometry" />
        </mxCell>
        <mxCell id="VQr28eF_XUWJxTgzowIh-61" value="¿Genera glosas?" style="points=[[0.25,0.25,0],[0.5,0,0],[0.75,0.25,0],[1,0.5,0],[0.75,0.75,0],[0.5,1,0],[0.25,0.75,0],[0,0.5,0]];shape=mxgraph.bpmn.gateway2;html=1;verticalLabelPosition=top;labelBackgroundColor=#ffffff;verticalAlign=bottom;align=center;perimeter=rhombusPerimeter;outlineConnect=0;outline=none;symbol=none;fillColor=#d5e8d4;strokeColor=#82b366;labelPosition=center;" vertex="1" parent="VQr28eF_XUWJxTgzowIh-16">
          <mxGeometry x="2180" y="425" width="50" height="50" as="geometry" />
        </mxCell>
        <mxCell id="VQr28eF_XUWJxTgzowIh-62" style="edgeStyle=orthogonalEdgeStyle;rounded=0;orthogonalLoop=1;jettySize=auto;html=1;" edge="1" parent="VQr28eF_XUWJxTgzowIh-16" source="VQr28eF_XUWJxTgzowIh-63" target="VQr28eF_XUWJxTgzowIh-51">
          <mxGeometry relative="1" as="geometry" />
        </mxCell>
        <mxCell id="VQr28eF_XUWJxTgzowIh-63" value="Realizar cargue masivo de glosas en modulo bint" style="points=[[0.25,0,0],[0.5,0,0],[0.75,0,0],[1,0.25,0],[1,0.5,0],[1,0.75,0],[0.75,1,0],[0.5,1,0],[0.25,1,0],[0,0.75,0],[0,0.5,0],[0,0.25,0]];shape=mxgraph.bpmn.task;whiteSpace=wrap;rectStyle=rounded;size=10;html=1;container=1;expand=0;collapsible=0;taskMarker=abstract;fillColor=#fff2cc;strokeColor=#d6b656;" vertex="1" parent="VQr28eF_XUWJxTgzowIh-16">
          <mxGeometry x="2290" y="410" width="120" height="80" as="geometry" />
        </mxCell>
        <mxCell id="VQr28eF_XUWJxTgzowIh-64" value="No" style="edgeStyle=orthogonalEdgeStyle;rounded=0;orthogonalLoop=1;jettySize=auto;html=1;exitX=0.5;exitY=1;exitDx=0;exitDy=0;exitPerimeter=0;entryX=0.5;entryY=1;entryDx=0;entryDy=0;entryPerimeter=0;" edge="1" parent="VQr28eF_XUWJxTgzowIh-16" source="VQr28eF_XUWJxTgzowIh-61" target="VQr28eF_XUWJxTgzowIh-53">
          <mxGeometry relative="1" as="geometry">
            <mxPoint x="2530" y="920" as="sourcePoint" />
            <Array as="points">
              <mxPoint x="2305" y="560" />
              <mxPoint x="2780" y="560" />
            </Array>
          </mxGeometry>
        </mxCell>
        <mxCell id="VQr28eF_XUWJxTgzowIh-65" style="edgeStyle=orthogonalEdgeStyle;rounded=0;orthogonalLoop=1;jettySize=auto;html=1;" edge="1" parent="VQr28eF_XUWJxTgzowIh-16" source="VQr28eF_XUWJxTgzowIh-66" target="VQr28eF_XUWJxTgzowIh-55">
          <mxGeometry relative="1" as="geometry">
            <mxPoint x="2980" y="450" as="targetPoint" />
          </mxGeometry>
        </mxCell>
        <mxCell id="VQr28eF_XUWJxTgzowIh-66" value="" style="points=[[0.25,0.25,0],[0.5,0,0],[0.75,0.25,0],[1,0.5,0],[0.75,0.75,0],[0.5,1,0],[0.25,0.75,0],[0,0.5,0]];shape=mxgraph.bpmn.gateway2;html=1;verticalLabelPosition=bottom;labelBackgroundColor=#ffffff;verticalAlign=top;align=center;perimeter=rhombusPerimeter;outlineConnect=0;outline=none;symbol=none;gwType=exclusive;fillColor=#d5e8d4;strokeColor=#82b366;" vertex="1" parent="VQr28eF_XUWJxTgzowIh-16">
          <mxGeometry x="2760" y="425" width="50" height="50" as="geometry" />
        </mxCell>
        <mxCell id="VQr28eF_XUWJxTgzowIh-67" value="" style="points=[[0.25,0.25,0],[0.5,0,0],[0.75,0.25,0],[1,0.5,0],[0.75,0.75,0],[0.5,1,0],[0.25,0.75,0],[0,0.5,0]];shape=mxgraph.bpmn.gateway2;html=1;verticalLabelPosition=bottom;labelBackgroundColor=#ffffff;verticalAlign=top;align=center;perimeter=rhombusPerimeter;outlineConnect=0;outline=end;symbol=general;fillColor=#d5e8d4;strokeColor=#82b366;" vertex="1" parent="VQr28eF_XUWJxTgzowIh-16">
          <mxGeometry x="1625" y="130" width="50" height="50" as="geometry" />
        </mxCell>
        <mxCell id="VQr28eF_XUWJxTgzowIh-68" style="edgeStyle=orthogonalEdgeStyle;rounded=0;orthogonalLoop=1;jettySize=auto;html=1;entryX=1;entryY=0.5;entryDx=0;entryDy=0;entryPerimeter=0;" edge="1" parent="VQr28eF_XUWJxTgzowIh-16" source="VQr28eF_XUWJxTgzowIh-56" target="VQr28eF_XUWJxTgzowIh-67">
          <mxGeometry relative="1" as="geometry">
            <Array as="points">
              <mxPoint x="3060" y="155" />
            </Array>
          </mxGeometry>
        </mxCell>
        <mxCell id="VQr28eF_XUWJxTgzowIh-70" value="Recibir respuesta de glosa del prestador" style="points=[[0.25,0,0],[0.5,0,0],[0.75,0,0],[1,0.25,0],[1,0.5,0],[1,0.75,0],[0.75,1,0],[0.5,1,0],[0.25,1,0],[0,0.75,0],[0,0.5,0],[0,0.25,0]];shape=mxgraph.bpmn.task;whiteSpace=wrap;rectStyle=rounded;size=10;html=1;container=1;expand=0;collapsible=0;taskMarker=receive;fillColor=#fff2cc;strokeColor=#d6b656;" vertex="1" parent="VQr28eF_XUWJxTgzowIh-16">
          <mxGeometry x="3170" y="410" width="120" height="80" as="geometry" />
        </mxCell>
        <mxCell id="VQr28eF_XUWJxTgzowIh-75" value="Si" style="edgeStyle=orthogonalEdgeStyle;rounded=0;orthogonalLoop=1;jettySize=auto;html=1;" edge="1" parent="VQr28eF_XUWJxTgzowIh-16" source="VQr28eF_XUWJxTgzowIh-76" target="VQr28eF_XUWJxTgzowIh-80">
          <mxGeometry relative="1" as="geometry">
            <mxPoint x="4000" y="450" as="targetPoint" />
          </mxGeometry>
        </mxCell>
        <mxCell id="VQr28eF_XUWJxTgzowIh-76" value="¿Aceptan valores &lt;br&gt;justificados?" style="points=[[0.25,0.25,0],[0.5,0,0],[0.75,0.25,0],[1,0.5,0],[0.75,0.75,0],[0.5,1,0],[0.25,0.75,0],[0,0.5,0]];shape=mxgraph.bpmn.gateway2;html=1;verticalLabelPosition=top;labelBackgroundColor=#ffffff;verticalAlign=bottom;align=center;perimeter=rhombusPerimeter;outlineConnect=0;outline=none;symbol=none;fillColor=#d5e8d4;strokeColor=#82b366;labelPosition=center;" vertex="1" parent="VQr28eF_XUWJxTgzowIh-16">
          <mxGeometry x="3560" y="425" width="50" height="50" as="geometry" />
        </mxCell>
        <mxCell id="VQr28eF_XUWJxTgzowIh-80" value="Legalizar la glosa" style="points=[[0.25,0,0],[0.5,0,0],[0.75,0,0],[1,0.25,0],[1,0.5,0],[1,0.75,0],[0.75,1,0],[0.5,1,0],[0.25,1,0],[0,0.75,0],[0,0.5,0],[0,0.25,0]];shape=mxgraph.bpmn.task;whiteSpace=wrap;rectStyle=rounded;size=10;html=1;container=1;expand=0;collapsible=0;taskMarker=abstract;fillColor=#fff2cc;strokeColor=#d6b656;" vertex="1" parent="VQr28eF_XUWJxTgzowIh-16">
          <mxGeometry x="3690" y="410" width="120" height="80" as="geometry" />
        </mxCell>
        <mxCell id="VQr28eF_XUWJxTgzowIh-112" value="" style="points=[[0.25,0.25,0],[0.5,0,0],[0.75,0.25,0],[1,0.5,0],[0.75,0.75,0],[0.5,1,0],[0.25,0.75,0],[0,0.5,0]];shape=mxgraph.bpmn.gateway2;html=1;verticalLabelPosition=bottom;labelBackgroundColor=#ffffff;verticalAlign=top;align=center;perimeter=rhombusPerimeter;outlineConnect=0;outline=none;symbol=none;gwType=exclusive;fillColor=#d5e8d4;strokeColor=#82b366;" vertex="1" parent="VQr28eF_XUWJxTgzowIh-16">
          <mxGeometry x="1190" y="305" width="50" height="50" as="geometry" />
        </mxCell>
        <mxCell id="VQr28eF_XUWJxTgzowIh-115" style="edgeStyle=orthogonalEdgeStyle;rounded=0;orthogonalLoop=1;jettySize=auto;html=1;entryX=0;entryY=0.5;entryDx=0;entryDy=0;entryPerimeter=0;" edge="1" parent="VQr28eF_XUWJxTgzowIh-16" source="VQr28eF_XUWJxTgzowIh-36" target="VQr28eF_XUWJxTgzowIh-112">
          <mxGeometry relative="1" as="geometry" />
        </mxCell>
        <mxCell id="VQr28eF_XUWJxTgzowIh-116" style="edgeStyle=orthogonalEdgeStyle;rounded=0;orthogonalLoop=1;jettySize=auto;html=1;entryX=0;entryY=0.5;entryDx=0;entryDy=0;entryPerimeter=0;" edge="1" parent="VQr28eF_XUWJxTgzowIh-16" source="VQr28eF_XUWJxTgzowIh-112" target="VQr28eF_XUWJxTgzowIh-57">
          <mxGeometry relative="1" as="geometry">
            <Array as="points">
              <mxPoint x="1290" y="330" />
              <mxPoint x="1290" y="265" />
            </Array>
          </mxGeometry>
        </mxCell>
        <mxCell id="VQr28eF_XUWJxTgzowIh-117" style="edgeStyle=orthogonalEdgeStyle;rounded=0;orthogonalLoop=1;jettySize=auto;html=1;entryX=0;entryY=0.5;entryDx=0;entryDy=0;entryPerimeter=0;" edge="1" parent="VQr28eF_XUWJxTgzowIh-16" source="VQr28eF_XUWJxTgzowIh-112" target="VQr28eF_XUWJxTgzowIh-44">
          <mxGeometry relative="1" as="geometry" />
        </mxCell>
        <mxCell id="VQr28eF_XUWJxTgzowIh-81" value="Auditor o gestor de calidad" style="swimlane;startSize=20;horizontal=0;html=1;" vertex="1" parent="VQr28eF_XUWJxTgzowIh-1">
          <mxGeometry y="870" width="3910" height="240" as="geometry" />
        </mxCell>
        <mxCell id="VQr28eF_XUWJxTgzowIh-82" style="edgeStyle=orthogonalEdgeStyle;rounded=0;orthogonalLoop=1;jettySize=auto;html=1;" edge="1" parent="VQr28eF_XUWJxTgzowIh-81" source="VQr28eF_XUWJxTgzowIh-83" target="VQr28eF_XUWJxTgzowIh-86">
          <mxGeometry relative="1" as="geometry" />
        </mxCell>
        <mxCell id="VQr28eF_XUWJxTgzowIh-83" value="Recepcionar relación de facturas recibidas en 48 horas" style="points=[[0.25,0,0],[0.5,0,0],[0.75,0,0],[1,0.25,0],[1,0.5,0],[1,0.75,0],[0.75,1,0],[0.5,1,0],[0.25,1,0],[0,0.75,0],[0,0.5,0],[0,0.25,0]];shape=mxgraph.bpmn.task;whiteSpace=wrap;rectStyle=rounded;size=10;html=1;container=1;expand=0;collapsible=0;taskMarker=receive;fillColor=#fff2cc;strokeColor=#d6b656;" vertex="1" parent="VQr28eF_XUWJxTgzowIh-81">
          <mxGeometry x="1550" y="40" width="120" height="80" as="geometry" />
        </mxCell>
        <mxCell id="VQr28eF_XUWJxTgzowIh-84" value="Notificar cierre de auditoria" style="points=[[0.25,0,0],[0.5,0,0],[0.75,0,0],[1,0.25,0],[1,0.5,0],[1,0.75,0],[0.75,1,0],[0.5,1,0],[0.25,1,0],[0,0.75,0],[0,0.5,0],[0,0.25,0]];shape=mxgraph.bpmn.task;whiteSpace=wrap;rectStyle=rounded;size=10;html=1;container=1;expand=0;collapsible=0;taskMarker=send;fillColor=#fff2cc;strokeColor=#d6b656;" vertex="1" parent="VQr28eF_XUWJxTgzowIh-81">
          <mxGeometry x="1880" y="40" width="120" height="80" as="geometry" />
        </mxCell>
        <mxCell id="VQr28eF_XUWJxTgzowIh-85" style="edgeStyle=orthogonalEdgeStyle;rounded=0;orthogonalLoop=1;jettySize=auto;html=1;" edge="1" parent="VQr28eF_XUWJxTgzowIh-81" source="VQr28eF_XUWJxTgzowIh-86" target="VQr28eF_XUWJxTgzowIh-84">
          <mxGeometry relative="1" as="geometry" />
        </mxCell>
        <mxCell id="VQr28eF_XUWJxTgzowIh-86" value="Realizar auditoria de facturas" style="points=[[0.25,0,0],[0.5,0,0],[0.75,0,0],[1,0.25,0],[1,0.5,0],[1,0.75,0],[0.75,1,0],[0.5,1,0],[0.25,1,0],[0,0.75,0],[0,0.5,0],[0,0.25,0]];shape=mxgraph.bpmn.task;whiteSpace=wrap;rectStyle=rounded;size=10;html=1;container=1;expand=0;collapsible=0;taskMarker=abstract;fillColor=#fff2cc;strokeColor=#d6b656;" vertex="1" parent="VQr28eF_XUWJxTgzowIh-81">
          <mxGeometry x="1720" y="40" width="120" height="80" as="geometry" />
        </mxCell>
        <mxCell id="VQr28eF_XUWJxTgzowIh-87" style="edgeStyle=orthogonalEdgeStyle;rounded=0;orthogonalLoop=1;jettySize=auto;html=1;" edge="1" parent="VQr28eF_XUWJxTgzowIh-81" source="VQr28eF_XUWJxTgzowIh-88" target="VQr28eF_XUWJxTgzowIh-83">
          <mxGeometry relative="1" as="geometry" />
        </mxCell>
        <mxCell id="VQr28eF_XUWJxTgzowIh-88" value="FOR-AUD-04" style="shape=mxgraph.bpmn.data;labelPosition=center;verticalLabelPosition=bottom;align=center;verticalAlign=top;size=15;html=1;bpmnTransferType=input;fillColor=#d5e8d4;strokeColor=#82b366;" vertex="1" parent="VQr28eF_XUWJxTgzowIh-81">
          <mxGeometry x="1470" y="50" width="40" height="60" as="geometry" />
        </mxCell>
        <mxCell id="VQr28eF_XUWJxTgzowIh-89" value="Revisar y evaluar la respuesta y justificación de la glosa" style="points=[[0.25,0,0],[0.5,0,0],[0.75,0,0],[1,0.25,0],[1,0.5,0],[1,0.75,0],[0.75,1,0],[0.5,1,0],[0.25,1,0],[0,0.75,0],[0,0.5,0],[0,0.25,0]];shape=mxgraph.bpmn.task;whiteSpace=wrap;rectStyle=rounded;size=10;html=1;container=1;expand=0;collapsible=0;taskMarker=abstract;fillColor=#fff2cc;strokeColor=#d6b656;" vertex="1" parent="VQr28eF_XUWJxTgzowIh-81">
          <mxGeometry x="3340" y="50" width="120" height="80" as="geometry" />
        </mxCell>
        <mxCell id="VQr28eF_XUWJxTgzowIh-90" style="edgeStyle=orthogonalEdgeStyle;rounded=0;orthogonalLoop=1;jettySize=auto;html=1;" edge="1" parent="VQr28eF_XUWJxTgzowIh-81" source="VQr28eF_XUWJxTgzowIh-91" target="VQr28eF_XUWJxTgzowIh-92">
          <mxGeometry relative="1" as="geometry" />
        </mxCell>
        <mxCell id="VQr28eF_XUWJxTgzowIh-91" value="Conciliar valores con el prestador" style="points=[[0.25,0,0],[0.5,0,0],[0.75,0,0],[1,0.25,0],[1,0.5,0],[1,0.75,0],[0.75,1,0],[0.5,1,0],[0.25,1,0],[0,0.75,0],[0,0.5,0],[0,0.25,0]];shape=mxgraph.bpmn.task;whiteSpace=wrap;rectStyle=rounded;size=10;html=1;container=1;expand=0;collapsible=0;taskMarker=abstract;fillColor=#fff2cc;strokeColor=#d6b656;" vertex="1" parent="VQr28eF_XUWJxTgzowIh-81">
          <mxGeometry x="3525" y="50" width="120" height="80" as="geometry" />
        </mxCell>
        <mxCell id="VQr28eF_XUWJxTgzowIh-92" value="Generar acta de conciliación" style="points=[[0.25,0,0],[0.5,0,0],[0.75,0,0],[1,0.25,0],[1,0.5,0],[1,0.75,0],[0.75,1,0],[0.5,1,0],[0.25,1,0],[0,0.75,0],[0,0.5,0],[0,0.25,0]];shape=mxgraph.bpmn.task;whiteSpace=wrap;rectStyle=rounded;size=10;html=1;container=1;expand=0;collapsible=0;taskMarker=abstract;fillColor=#fff2cc;strokeColor=#d6b656;" vertex="1" parent="VQr28eF_XUWJxTgzowIh-81">
          <mxGeometry x="3690" y="50" width="120" height="80" as="geometry" />
        </mxCell>
        <mxCell id="VQr28eF_XUWJxTgzowIh-93" style="edgeStyle=orthogonalEdgeStyle;rounded=0;orthogonalLoop=1;jettySize=auto;html=1;" edge="1" parent="VQr28eF_XUWJxTgzowIh-1" source="VQr28eF_XUWJxTgzowIh-44" target="VQr28eF_XUWJxTgzowIh-83">
          <mxGeometry relative="1" as="geometry">
            <mxPoint x="1600" y="690" as="targetPoint" />
          </mxGeometry>
        </mxCell>
        <mxCell id="VQr28eF_XUWJxTgzowIh-94" style="edgeStyle=orthogonalEdgeStyle;rounded=0;orthogonalLoop=1;jettySize=auto;html=1;" edge="1" parent="VQr28eF_XUWJxTgzowIh-1" source="VQr28eF_XUWJxTgzowIh-84" target="VQr28eF_XUWJxTgzowIh-49">
          <mxGeometry relative="1" as="geometry" />
        </mxCell>
        <mxCell id="VQr28eF_XUWJxTgzowIh-95" value="Asistente de pagaduría" style="swimlane;startSize=20;horizontal=0;html=1;" vertex="1" parent="VQr28eF_XUWJxTgzowIh-1">
          <mxGeometry y="1110" width="3910" height="240" as="geometry" />
        </mxCell>
        <mxCell id="VQr28eF_XUWJxTgzowIh-96" style="edgeStyle=orthogonalEdgeStyle;rounded=0;orthogonalLoop=1;jettySize=auto;html=1;" edge="1" parent="VQr28eF_XUWJxTgzowIh-95" source="VQr28eF_XUWJxTgzowIh-97" target="VQr28eF_XUWJxTgzowIh-100">
          <mxGeometry relative="1" as="geometry">
            <mxPoint x="3530" y="110" as="targetPoint" />
          </mxGeometry>
        </mxCell>
        <mxCell id="VQr28eF_XUWJxTgzowIh-97" value="Notificar pago a prestadores" style="points=[[0.25,0,0],[0.5,0,0],[0.75,0,0],[1,0.25,0],[1,0.5,0],[1,0.75,0],[0.75,1,0],[0.5,1,0],[0.25,1,0],[0,0.75,0],[0,0.5,0],[0,0.25,0]];shape=mxgraph.bpmn.task;whiteSpace=wrap;rectStyle=rounded;size=10;html=1;container=1;expand=0;collapsible=0;taskMarker=send;fillColor=#fff2cc;strokeColor=#d6b656;" vertex="1" parent="VQr28eF_XUWJxTgzowIh-95">
          <mxGeometry x="3090" y="70" width="120" height="80" as="geometry" />
        </mxCell>
        <mxCell id="VQr28eF_XUWJxTgzowIh-98" style="edgeStyle=orthogonalEdgeStyle;rounded=0;orthogonalLoop=1;jettySize=auto;html=1;" edge="1" parent="VQr28eF_XUWJxTgzowIh-95" source="VQr28eF_XUWJxTgzowIh-99" target="VQr28eF_XUWJxTgzowIh-97">
          <mxGeometry relative="1" as="geometry" />
        </mxCell>
        <mxCell id="VQr28eF_XUWJxTgzowIh-99" value="Programar cuentas por pagar SOFSIN" style="points=[[0.25,0,0],[0.5,0,0],[0.75,0,0],[1,0.25,0],[1,0.5,0],[1,0.75,0],[0.75,1,0],[0.5,1,0],[0.25,1,0],[0,0.75,0],[0,0.5,0],[0,0.25,0]];shape=mxgraph.bpmn.task;whiteSpace=wrap;rectStyle=rounded;size=10;html=1;container=1;expand=0;collapsible=0;taskMarker=abstract;fillColor=#fff2cc;strokeColor=#d6b656;" vertex="1" parent="VQr28eF_XUWJxTgzowIh-95">
          <mxGeometry x="2940" y="70" width="120" height="80" as="geometry" />
        </mxCell>
        <mxCell id="VQr28eF_XUWJxTgzowIh-100" value="Fin" style="points=[[0.145,0.145,0],[0.5,0,0],[0.855,0.145,0],[1,0.5,0],[0.855,0.855,0],[0.5,1,0],[0.145,0.855,0],[0,0.5,0]];shape=mxgraph.bpmn.event;html=1;verticalLabelPosition=bottom;labelBackgroundColor=#ffffff;verticalAlign=top;align=center;perimeter=ellipsePerimeter;outlineConnect=0;aspect=fixed;outline=end;symbol=terminate;fillColor=#f8cecc;strokeColor=#b85450;" vertex="1" parent="VQr28eF_XUWJxTgzowIh-95">
          <mxGeometry x="3240" y="85" width="50" height="50" as="geometry" />
        </mxCell>
        <mxCell id="VQr28eF_XUWJxTgzowIh-101" style="edgeStyle=orthogonalEdgeStyle;rounded=0;orthogonalLoop=1;jettySize=auto;html=1;" edge="1" parent="VQr28eF_XUWJxTgzowIh-95" source="VQr28eF_XUWJxTgzowIh-102" target="VQr28eF_XUWJxTgzowIh-99">
          <mxGeometry relative="1" as="geometry" />
        </mxCell>
        <mxCell id="VQr28eF_XUWJxTgzowIh-102" value="" style="points=[[0.25,0.25,0],[0.5,0,0],[0.75,0.25,0],[1,0.5,0],[0.75,0.75,0],[0.5,1,0],[0.25,0.75,0],[0,0.5,0]];shape=mxgraph.bpmn.gateway2;html=1;verticalLabelPosition=bottom;labelBackgroundColor=#ffffff;verticalAlign=top;align=center;perimeter=rhombusPerimeter;outlineConnect=0;outline=end;symbol=general;fillColor=#d5e8d4;strokeColor=#82b366;" vertex="1" parent="VQr28eF_XUWJxTgzowIh-95">
          <mxGeometry x="2840" y="85" width="50" height="50" as="geometry" />
        </mxCell>
        <mxCell id="VQr28eF_XUWJxTgzowIh-103" style="edgeStyle=orthogonalEdgeStyle;rounded=0;orthogonalLoop=1;jettySize=auto;html=1;" edge="1" parent="VQr28eF_XUWJxTgzowIh-1" source="VQr28eF_XUWJxTgzowIh-67" target="VQr28eF_XUWJxTgzowIh-13">
          <mxGeometry relative="1" as="geometry" />
        </mxCell>
        <mxCell id="VQr28eF_XUWJxTgzowIh-104" style="edgeStyle=orthogonalEdgeStyle;rounded=0;orthogonalLoop=1;jettySize=auto;html=1;" edge="1" parent="VQr28eF_XUWJxTgzowIh-1" source="VQr28eF_XUWJxTgzowIh-14" target="VQr28eF_XUWJxTgzowIh-70">
          <mxGeometry relative="1" as="geometry" />
        </mxCell>
        <mxCell id="VQr28eF_XUWJxTgzowIh-107" value="No" style="edgeStyle=orthogonalEdgeStyle;rounded=0;orthogonalLoop=1;jettySize=auto;html=1;" edge="1" parent="VQr28eF_XUWJxTgzowIh-1" source="VQr28eF_XUWJxTgzowIh-76" target="VQr28eF_XUWJxTgzowIh-91">
          <mxGeometry relative="1" as="geometry" />
        </mxCell>
        <mxCell id="VQr28eF_XUWJxTgzowIh-108" style="edgeStyle=orthogonalEdgeStyle;rounded=0;orthogonalLoop=1;jettySize=auto;html=1;entryX=0.5;entryY=1;entryDx=0;entryDy=0;entryPerimeter=0;" edge="1" parent="VQr28eF_XUWJxTgzowIh-1" source="VQr28eF_XUWJxTgzowIh-92" target="VQr28eF_XUWJxTgzowIh-80">
          <mxGeometry relative="1" as="geometry" />
        </mxCell>
        <mxCell id="VQr28eF_XUWJxTgzowIh-109" style="edgeStyle=orthogonalEdgeStyle;rounded=0;orthogonalLoop=1;jettySize=auto;html=1;entryX=0;entryY=0.5;entryDx=0;entryDy=0;entryPerimeter=0;" edge="1" parent="VQr28eF_XUWJxTgzowIh-1" source="VQr28eF_XUWJxTgzowIh-66" target="VQr28eF_XUWJxTgzowIh-102">
          <mxGeometry relative="1" as="geometry">
            <Array as="points">
              <mxPoint x="2785" y="1220" />
            </Array>
          </mxGeometry>
        </mxCell>
        <mxCell id="VQr28eF_XUWJxTgzowIh-110" style="edgeStyle=orthogonalEdgeStyle;rounded=0;orthogonalLoop=1;jettySize=auto;html=1;" edge="1" parent="VQr28eF_XUWJxTgzowIh-1" source="VQr28eF_XUWJxTgzowIh-80" target="VQr28eF_XUWJxTgzowIh-102">
          <mxGeometry relative="1" as="geometry">
            <Array as="points">
              <mxPoint x="3860" y="710" />
              <mxPoint x="3860" y="1070" />
              <mxPoint x="2865" y="1070" />
            </Array>
          </mxGeometry>
        </mxCell>
        <mxCell id="VQr28eF_XUWJxTgzowIh-72" style="edgeStyle=orthogonalEdgeStyle;rounded=0;orthogonalLoop=1;jettySize=auto;html=1;entryX=0;entryY=0.5;entryDx=0;entryDy=0;entryPerimeter=0;" edge="1" parent="VQr28eF_XUWJxTgzowIh-1" source="VQr28eF_XUWJxTgzowIh-70" target="VQr28eF_XUWJxTgzowIh-89">
          <mxGeometry relative="1" as="geometry">
            <mxPoint x="3320" y="710" as="targetPoint" />
          </mxGeometry>
        </mxCell>
        <mxCell id="VQr28eF_XUWJxTgzowIh-118" style="edgeStyle=orthogonalEdgeStyle;rounded=0;orthogonalLoop=1;jettySize=auto;html=1;entryX=0;entryY=0.5;entryDx=0;entryDy=0;entryPerimeter=0;" edge="1" parent="VQr28eF_XUWJxTgzowIh-1" source="VQr28eF_XUWJxTgzowIh-89" target="VQr28eF_XUWJxTgzowIh-76">
          <mxGeometry relative="1" as="geometry" />
        </mxCell>
      </root>
    </mxGraphModel>
  </diagram>
</mxfile>
